<svg width="417" height="203" viewBox="0 0 417 203" fill="none" xmlns="http://www.w3.org/2000/svg">
<path d="M169.031 96.6318H165.031L169.031 96.6367V96.7119C169.031 96.7546 169.03 96.8132 169.028 96.8867C169.026 97.0338 169.022 97.2419 169.013 97.5068C168.994 98.0367 168.958 98.7954 168.888 99.751C168.747 101.661 168.467 104.367 167.911 107.614C166.803 114.093 164.581 122.818 160.104 131.711C151.048 149.704 132.869 168.08 97.2627 170.146L97.1475 170.152H97.0312C62.2906 170.152 43.3182 153.479 33.2305 136.654C28.2434 128.337 25.4595 120.053 23.918 113.87C23.7859 113.34 23.6635 112.825 23.5488 112.326L8.16113 130.948C8.22783 131.473 8.32739 132.139 8.47754 132.933C8.9164 135.252 9.78139 138.662 11.4844 142.833C14.8825 151.156 21.6509 162.597 35.1729 174.489C48.4681 186.182 63.339 191.128 74.9639 193.141C80.77 194.146 85.732 194.412 89.2227 194.429C90.966 194.437 92.3374 194.383 93.2578 194.328C93.7179 194.301 94.0653 194.273 94.2891 194.254C94.4005 194.244 94.4813 194.236 94.5303 194.231C94.5379 194.231 94.5447 194.229 94.5508 194.229V202.258C94.3182 202.276 94.0441 202.296 93.7305 202.314C92.6549 202.378 91.1118 202.438 89.1836 202.429C85.3306 202.41 79.9171 202.117 73.5986 201.023C60.9735 198.838 44.5943 193.429 29.8896 180.496C15.4117 167.763 7.92995 155.29 4.07812 145.856C2.15622 141.149 1.1461 137.22 0.616211 134.42C0.351341 133.02 0.206294 131.902 0.126953 131.11C0.0872812 130.714 0.0643861 130.399 0.0507812 130.171C0.0439915 130.057 0.0399287 129.964 0.0371094 129.895C0.0357064 129.86 0.0339333 129.83 0.0332031 129.807C0.032839 129.795 0.0334385 129.784 0.0332031 129.775C0.0330853 129.771 0.032317 129.766 0.0322266 129.763C0.0321863 129.761 0.0322506 129.759 0.0322266 129.758C0.0321707 129.755 0.0321786 129.752 4.03125 129.666L0.0322266 129.753L0 128.266L0.947266 127.118L22.9473 100.493L24.0664 99.1387H29.7529L30.0205 102.746C30.0207 102.749 30.0211 102.753 30.0215 102.758C30.0231 102.777 30.0259 102.811 30.0303 102.859C30.0391 102.956 30.0536 103.11 30.0762 103.316C30.1213 103.73 30.1979 104.356 30.3184 105.163C30.5596 106.78 30.9773 109.117 31.6797 111.935C33.0883 117.585 35.6188 125.08 40.0918 132.54C48.9135 147.253 65.4124 162.115 96.916 162.151C129.231 160.24 145.024 143.877 152.958 128.114C156.982 120.12 159.01 112.205 160.026 106.265C160.533 103.303 160.784 100.854 160.909 99.1631C160.971 98.3182 161.002 97.664 161.017 97.2314C161.024 97.0152 161.028 96.8542 161.029 96.7529C161.03 96.7025 161.031 96.6669 161.031 96.6465V0H169.031V96.6318ZM136.03 0C136.024 19.9422 135.903 38.2062 135.781 55.2158C135.656 72.652 135.531 88.7604 135.531 104.027C135.531 104.733 135.357 105.807 135.132 106.868C134.879 108.061 134.482 109.598 133.896 111.349C132.729 114.837 130.773 119.283 127.606 123.569C121.138 132.326 109.821 140.075 91.1787 138.088C75.1113 136.946 66.2269 126.94 61.5264 117.67C59.1843 113.051 57.8248 108.535 57.0488 105.194C56.6592 103.517 56.4118 102.116 56.2607 101.121C56.1851 100.623 56.1333 100.224 56.0996 99.9424C56.0828 99.8016 56.071 99.6896 56.0625 99.6084C56.0583 99.5679 56.0552 99.5347 56.0527 99.5098C56.0515 99.4975 56.0506 99.4869 56.0498 99.4785C56.0494 99.4743 56.0491 99.47 56.0488 99.4668C56.0487 99.4654 56.0479 99.4638 56.0479 99.4629C56.0477 99.4611 56.0477 99.4591 59.5742 99.1387H64.0635C64.0882 99.335 64.1221 99.5982 64.1709 99.9199C64.2952 100.739 64.505 101.935 64.8418 103.385C65.5189 106.3 66.6908 110.166 68.6611 114.052C72.366 121.358 78.6902 128.443 89.8428 129.915C91.8711 127.469 93.044 125.706 93.7646 124.189C94.5666 122.501 94.8969 120.935 95.0312 118.687V26.8232L96.3369 25.6338L124.463 0H136.03ZM103.031 30.3564V118.933L103.024 119.046C102.855 122.018 102.38 124.698 100.991 127.622C100.568 128.513 100.069 129.405 99.4893 130.319C110.461 129.606 117.082 124.352 121.172 118.816C123.72 115.368 125.334 111.724 126.31 108.81C126.795 107.359 127.113 106.116 127.306 105.207C127.527 104.166 127.531 103.815 127.531 104.027C127.531 88.725 127.656 72.5831 127.781 55.1582C127.888 40.3318 127.992 24.5693 128.021 7.5791L103.031 30.3564ZM29.3076 93.1387H29.0244L29.2842 92.8242L29.3076 93.1387Z" fill="black"/>
<path d="M221.834 8.71484H221.838V173.34H251.982V47.9658L258.743 54.4111L316.206 109.196L351.994 75.3418L372.724 53.585L379.62 46.3477V173.34H408.031V10.2148H408.032V1.11816H416.031V178.892L414.984 180.037L413.802 181.332H390.531V181.34H377.28L364.448 194.215H402.031L395.912 200.913L394.723 202.215H350.813V87.4717L296.877 138.495L294.111 141.111L291.361 138.478L259.982 108.426V178.992L258.816 180.163L257.651 181.332H232.031V181.34H219.498L206.666 194.215H244.812L238.01 201.039L236.837 202.215H193.031V22.5527L194.257 21.373L215.062 1.33398L216.225 0.214844H221.834V8.71484ZM201.031 25.9541V188.535L213.838 175.686V13.6201L201.031 25.9541ZM358.813 79.7822V188.535L371.62 175.686V66.3408L358.813 79.7822ZM259.982 97.3477L294.144 130.066L310.387 114.701L259.982 66.6455V97.3477ZM257.103 1.41211L314.955 60.3174L372.787 2.29492L373.959 1.11816H377.305V9.11816H377.281L317.768 68.8281L314.913 71.6914L312.081 68.8076L252.571 8.21484H252.531V0.214844H255.927L257.103 1.41211Z" fill="black"/>
</svg>
